HIERARCHY
ROOT ui
{
	 OFFSET 0 0 0
	 CHANNELS 3 XPosition YPosition Z Position
	 EndSite
	 {
	 OFFSET 0 -1 0
	 }
}
ROOT li
{
	 OFFSET 0 0 0
	 CHANNELS 3 XPosition YPosition Z Position
	 EndSite
	 {
	 OFFSET 0 -1 0
	 }
}
ROOT ul
{
	 OFFSET 0 0 0
	 CHANNELS 3 XPosition YPosition Z Position
	 EndSite
	 {
	 OFFSET 0 -1 0
	 }
}
ROOT ll
{
	 OFFSET 0 0 0
	 CHANNELS 3 XPosition YPosition Z Position
	 EndSite
	 {
	 OFFSET 0 -1 0
	 }
}
ROOT tt
{
	 OFFSET 0 0 0
	 CHANNELS 3 XPosition YPosition Z Position
	 EndSite
	 {
	 OFFSET 0 -1 0
	 }
}
ROOT tb
{
	 OFFSET 0 0 0
	 CHANNELS 3 XPosition YPosition Z Position
	 EndSite
	 {
	 OFFSET 0 -1 0
	 }
}
ROOT td
{
	 OFFSET 0 0 0
	 CHANNELS 3 XPosition YPosition Z Position
	 EndSite
	 {
	 OFFSET 0 -1 0
	 }
}
ROOT v
{
	 OFFSET 0 0 0
	 CHANNELS 3 XPosition YPosition Z Position
	 EndSite
	 {
	 OFFSET 0 -1 0
	 }
}
ROOT bn
{
	 OFFSET 0 0 0
	 CHANNELS 3 XPosition YPosition Z Position
	 EndSite
	 {
	 OFFSET 0 -1 0
	 }
}
MOTION
Frames: 24
Frame Time: 0.002
0.007321693897247314	0.0024898409843444823	0		0.5774156494140625	-2.510925048828125	0		-1.0837508544921874	0.07510940551757812	0		-0.5703609619140625	-2.83653466796875	0		2.325604248046875	-1.5318394775390625	0		3.47570556640625	-0.2051604461669922	0		4.92819140625	0.5871370849609375	0		5.96902587890625	0.4982347106933594	0		-0.14133164978027343	5.898220703125	0		
3.489019870758057E-4	-0.00472243881225586	0		0.5495030517578126	-2.5108466796875	0		-1.0886654052734375	0.07188642120361328	0		-0.5831803588867187	-2.82965283203125	0		2.342689208984375	-1.5334351806640625	0		3.445032470703125	-0.1910894012451172	0		4.91364453125	0.6089536743164062	0		5.9521767578125	0.4990645751953125	0		-0.1420769500732422	5.899923828125	0		
5.288029909133911E-4	-0.005109711170196533	0		0.5735701293945312	-2.516586181640625	0		-1.092541259765625	0.06757370758056641	0		-0.597985107421875	-2.82581640625	0		2.3058349609375	-1.534327880859375	0		3.41328466796875	-0.1860713653564453	0		4.9099345703125	0.6155473022460938	0		5.9593779296875	0.4994850769042969	0		-0.1768741455078125	5.895041015625	0		
7.60338008403778E-4	-0.00557209300994873	0		0.522886474609375	-2.5083251953125	0		-1.08913671875	0.07908238220214844	0		-0.5760394897460938	-2.84358447265625	0		2.306303466796875	-1.516824462890625	0		3.391802978515625	-0.16626792907714844	0		4.88570849609375	0.6523710327148438	0		5.95984619140625	0.5149373168945313	0		-0.16041781616210937	5.9043505859375	0		
0.00814138412475586	7.891929745674133E-4	0		0.5521185913085938	-2.510285888671875	0		-1.166717041015625	0.08867855834960937	0		-0.5978351440429688	-2.846798095703125	0		2.252642822265625	-1.51161572265625	0		3.35525830078125	-0.1543179931640625	0		4.88819921875	0.665741455078125	0		5.98724658203125	0.5219356079101563	0		-0.1610471954345703	5.90482958984375	0		
-0.017527320861816405	5.51459014415741E-4	0		0.527493408203125	-2.505544677734375	0		-1.0903953857421875	0.08698736572265625	0		-0.5395445556640625	-2.84823681640625	0		2.306876953125	-1.518028564453125	0		3.35965673828125	-0.1500252685546875	0		4.87363720703125	0.6722899169921875	0		5.98371044921875	0.5303132934570313	0		-0.1427115478515625	5.89996142578125	0		
0.001743857979774475	-0.007405259132385254	0		0.5766939086914062	-2.51693798828125	0		-1.0900206298828126	0.08631375885009765	0		-0.6012495727539062	-2.8520234375	0		2.239531005859375	-1.4977589111328125	0		3.35220263671875	-0.1386283416748047	0		4.85523583984375	0.686830078125	0		5.9750908203125	0.5297003173828125	0		-0.14228022766113282	5.89927880859375	0		
-0.023835060119628906	-0.007785946846008301	0		0.5770917358398437	-2.51769775390625	0		-1.0945433349609375	0.08963926696777344	0		-0.5459177856445312	-2.85756494140625	0		2.2327939453125	-1.508430419921875	0		3.301740234375	-0.13067739868164063	0		4.84976123046875	0.6931209716796874	0		5.97162890625	0.5369530639648438	0		-0.17688177490234375	5.894029296875	0		
0.002626800060272217	-0.008982837677001953	0		0.5515855712890625	-2.51514990234375	0		-1.16512841796875	0.08584703826904297	0		-0.60549462890625	-2.859519287109375	0		2.217322265625	-1.504037841796875	0		3.292104248046875	-0.13837701416015624	0		4.83633251953125	0.6994672241210937	0		5.97209716796875	0.536091064453125	0		-0.19530419921875	5.89848095703125	0		
0.013284189224243164	-1.3101999647915364E-5	0		0.5581880493164062	-2.509124755859375	0		-1.0795216064453126	0.09074209594726562	0		-0.5300451049804688	-2.86448193359375	0		2.2229296875	-1.4980064697265625	0		3.29783349609375	-0.12435169219970703	0		4.8272548828125	0.7266998901367188	0		5.97672900390625	0.5431185302734375	0		-0.11045296478271484	5.91838427734375	0		
0.013852134704589843	-9.544039964675903E-4	0		0.5587490234375	-2.510067626953125	0		-1.0848807373046876	0.09488975524902343	0		-0.56948095703125	-2.86484521484375	0		2.18752587890625	-1.496435302734375	0		3.25843408203125	-0.1227258071899414	0		4.839837890625	0.726572265625	0		5.9654150390625	0.5503328857421875	0		-0.16105076599121093	5.9051796875	0		
0.009547943115234376	0.0031268649101257326	0		0.5552997436523438	-2.516	0		-1.088314697265625	0.08995793151855469	0		-0.55090380859375	-2.869094482421875	0		2.210074462890625	-1.5027427978515624	0		3.232146728515625	-0.1173287124633789	0		4.81655029296875	0.731925537109375	0		5.96603857421875	0.549340576171875	0		-0.14249940490722657	5.8989306640625	0		
0.005009707927703858	-0.01283139991760254	0		0.5539544677734375	-2.51900146484375	0		-1.165499755859375	0.09904647827148437	0		-0.5803750610351562	-2.880694091796875	0		2.1489345703125	-1.4908773193359375	0		3.21684033203125	-0.11712256622314453	0		4.8133271484375	0.7379619140625	0		5.96671435546875	0.5483226928710937	0		-0.1759043731689453	5.893388671875	0		
0.012837818145751953	-0.006998391151428223	0		0.556724609375	-2.518093017578125	0		-1.0737529296875	0.09866374969482422	0		-0.5457070922851562	-2.887251953125	0		2.117918701171875	-1.4744720458984375	0		3.205642333984375	-0.1129983139038086	0		4.8101669921875	0.744979248046875	0		5.97155419921875	0.5552310180664063	0		-0.19511979675292968	5.89860986328125	0		
0.0028564729690551756	0.00906864833831787	0		0.5346376953125	-2.510847412109375	0		-1.144916015625	0.10260039520263672	0		-0.580861328125	-2.88482861328125	0		2.118704833984375	-1.4755426025390626	0		3.194503662109375	-0.1078868637084961	0		4.8070341796875	0.7509899291992187	0		5.9684375	0.5622521362304688	0		-0.14614627075195313	5.9148251953125	0		
0.003666234016418457	0.00796493101119995	0		0.5624353637695313	-2.51533203125	0		-1.069000244140625	0.10840182495117187	0		-0.54811669921875	-2.893399658203125	0		2.103708740234375	-1.4643890380859375	0		3.19940087890625	-0.103005859375	0		4.8010361328125	0.7640499877929687	0		5.9803681640625	0.5700693969726562	0		0.004841897010803222	5.930560546875	0		
-0.02149290084838867	0.0072298598289489745	0		0.5343226928710938	-2.516013671875	0		-1.1441417236328124	0.10936518859863281	0		-0.5523110961914063	-2.90044580078125	0		2.074720703125	-1.455029296875	0		3.193213134765625	-0.10595516967773437	0		4.7867470703125	0.7552454833984374	0		5.96518359375	0.5683001098632813	0		-0.12773052215576172	5.90936474609375	0		
0.005362872123718262	0.005750638961791992	0		0.5861334838867187	-2.524837890625	0		-1.0781632080078125	0.11629996490478516	0		-0.5574712524414063	-2.907477783203125	0		2.0477877197265624	-1.4436871337890624	0		3.157192626953125	-0.09845789337158203	0		4.7805888671875	0.7543499755859375	0		5.96602880859375	0.5673313598632812	0		-0.12799329376220703	5.90927001953125	0		
-0.01976216697692871	0.005025504112243652	0		0.5361795654296875	-2.518190185546875	0		-1.13924462890625	0.11906053924560547	0		-0.5466787109375	-2.919732177734375	0		2.04869921875	-1.444729248046875	0		3.151867919921875	-0.11338273620605469	0		4.7675283203125	0.7595814208984375	0		5.97177099609375	0.5583242797851562	0		-0.18027499389648438	5.908927734375	0		
0.010173569679260254	0.007525538921356201	0		0.5681627807617188	-2.51770166015625	0		-1.1283818359375	0.11679861450195313	0		-0.5436803588867187	-2.9188623046875	0		2.0567666015625	-1.43585302734375	0		3.16498046875	-0.09854521942138672	0		4.76348779296875	0.7657115478515625	0		5.9728642578125	0.57341845703125	0		-0.1445183868408203	5.91133740234375	0		
-0.014936187744140624	0.006826974868774414	0		0.5421786499023438	-2.5153681640625	0		-1.138354248046875	0.12584796142578125	0		-0.5616806640625	-2.918678955078125	0		2.0377747802734376	-1.431570556640625	0		3.12391845703125	-0.09591268920898438	0		4.7433525390625	0.7650975341796875	0		5.9737333984375	0.5725447998046875	0		-0.1467669677734375	5.9143056640625	0		
0.008896242141723633	0.0014469749927520752	0		0.5640136108398438	-2.52669970703125	0		-1.0614886474609375	0.12267523193359375	0		-0.5559154052734375	-2.93582080078125	0		1.9879774169921876	-1.41382958984375	0		3.116658203125	-0.10774229431152343	0		4.73641748046875	0.7783215942382813	0		5.9694921875	0.563771240234375	0		-0.1460662841796875	5.9142470703125	0		
-0.016206701278686522	7.793239951133728E-4	0		0.538044677734375	-2.52433349609375	0		-1.13657666015625	0.123677734375	0		-0.5270735473632813	-2.9482734375	0		2.02383447265625	-1.4212900390625	0		3.106458251953125	-0.11550955200195312	0		4.72407275390625	0.76264208984375	0		5.9703662109375	0.562950439453125	0		-0.16152584838867187	5.90343310546875	0		
0.010687235832214356	-6.102089881896973E-4	0		0.5659899291992188	-2.52871630859375	0		-1.122530517578125	0.1334293212890625	0		-0.5671057739257812	-2.951734130859375	0		1.9829718017578124	-1.408643310546875	0		3.11845703125	-0.10957164764404297	0		4.71904052734375	0.7688804931640625	0		5.9802412109375	0.5620237426757813	0		-0.1456945343017578	5.91319287109375	0		
